<svg width="100" height="100" viewBox="0 0 100 100" fill="none" xmlns="http://www.w3.org/2000/svg">
<path d="M83.3331 50.2082C83.255 43.8561 81.3634 37.6585 77.881 32.3454C74.3986 27.0323 69.4705 22.8249 63.677 20.2188C57.8836 17.6127 51.4661 16.7163 45.1803 17.6353C38.8944 18.5543 33.0021 21.2503 28.1972 25.4059C23.3923 29.5615 19.8749 35.0036 18.0593 41.0912C16.2437 47.1789 16.2055 53.6586 17.9492 59.7672C19.6928 65.8759 23.1457 71.3591 27.9013 75.5711C32.6568 79.7831 38.5169 82.5485 44.7914 83.5415V59.9165H36.4581V50.2082H44.7914V42.8332C44.5986 41.1183 44.7845 39.3821 45.336 37.7469C45.8876 36.1117 46.7913 34.6176 47.9834 33.3698C49.1755 32.1221 50.6269 31.1512 52.2352 30.5257C53.8436 29.9003 55.5696 29.6354 57.2914 29.7499C59.7908 29.7841 62.284 30.007 64.7498 30.4165V38.7499H60.5831C59.8646 38.6593 59.1349 38.7313 58.448 38.9605C57.7611 39.1898 57.1345 39.5706 56.6145 40.0746C56.0944 40.5786 55.6943 41.193 55.4437 41.8724C55.1931 42.5518 55.0983 43.2789 55.1664 43.9999V50.2915H64.4164L62.9164 59.9999H55.2081V83.3332C63.0827 82.0876 70.2501 78.061 75.4102 71.9836C80.5702 65.9061 83.3812 58.1806 83.3331 50.2082Z" fill="black"/>
</svg>
