<svg width="100" height="100" viewBox="0 0 100 100" fill="none" xmlns="http://www.w3.org/2000/svg">
<path d="M81.9584 33.9165C81.5879 32.4885 80.8449 31.1844 79.8054 30.1376C78.7659 29.0908 77.4671 28.3387 76.0417 27.9581C67.3999 26.9389 58.7012 26.4796 50.0001 26.5831C41.299 26.4796 32.6002 26.9389 23.9584 27.9581C22.5331 28.3387 21.2343 29.0908 20.1948 30.1376C19.1552 31.1844 18.4123 32.4885 18.0417 33.9165C17.0951 39.2246 16.6349 44.608 16.6667 49.9998C16.6333 55.4193 17.0935 60.8305 18.0417 66.1665C18.4315 67.5714 19.183 68.8495 20.2212 69.8731C21.2595 70.8967 22.5481 71.63 23.9584 71.9998C32.6002 73.019 41.299 73.4783 50.0001 73.3748C58.7012 73.4783 67.3999 73.019 76.0417 71.9998C77.4521 71.63 78.7407 70.8967 79.7789 69.8731C80.8172 68.8495 81.5687 67.5714 81.9584 66.1665C82.9066 60.8305 83.3669 55.4193 83.3334 49.9998C83.3653 44.608 82.905 39.2246 81.9584 33.9165ZM43.1667 59.9581V40.1248L60.6251 49.9998L43.1667 59.9165V59.9581Z" fill="black"/>
</svg>
